<?xml version="1.0" standalone="no"?>
<!DOCTYPE svg PUBLIC "-//W3C//DTD SVG 20010904//EN"
 "http://www.w3.org/TR/2001/REC-SVG-20010904/DTD/svg10.dtd">
<svg version="1.0" xmlns="http://www.w3.org/2000/svg"
  viewBox="0 0 1024.000000 721.000000"
 preserveAspectRatio="xMidYMid meet">
<metadata>
Created by potrace 1.15, written by Peter Selinger 2001-2017
</metadata>
<g transform="translate(0.000000,721.000000) scale(0.100000,-0.100000)"
fill="#000000" stroke="none">
<path d="M3878 7195 c-3 -3 -194 -10 -424 -15 -231 -5 -473 -14 -539 -20 -66
-5 -239 -14 -385 -20 -146 -5 -312 -14 -370 -20 -58 -5 -161 -14 -230 -20
-194 -14 -443 -39 -465 -45 -11 -3 -58 -12 -105 -19 -105 -17 -238 -44 -265
-55 -11 -5 -54 -21 -95 -37 -71 -27 -191 -86 -214 -105 -6 -5 -30 -22 -53 -37
-95 -62 -209 -172 -288 -277 -53 -70 -155 -240 -155 -260 -1 -5 -9 -28 -20
-50 -11 -22 -19 -47 -20 -56 0 -8 -4 -19 -9 -25 -9 -8 -25 -73 -56 -224 -8
-36 -16 -74 -20 -85 -7 -24 -31 -196 -50 -360 -8 -66 -17 -133 -20 -150 -9
-38 -32 -346 -45 -585 -6 -102 -15 -228 -20 -280 -13 -125 -13 -1565 0 -1690
5 -52 14 -178 20 -280 13 -239 36 -547 45 -585 3 -16 12 -84 20 -150 19 -164
43 -336 50 -360 4 -11 12 -49 20 -85 31 -151 47 -216 56 -225 5 -5 9 -16 9
-25 1 -8 9 -33 20 -55 11 -22 19 -45 20 -50 0 -20 102 -190 155 -260 79 -105
193 -215 288 -277 23 -15 47 -32 53 -37 23 -19 143 -78 214 -105 41 -16 84
-32 95 -37 27 -11 160 -38 265 -55 47 -7 94 -16 105 -19 22 -6 271 -31 465
-45 69 -6 172 -15 230 -20 58 -6 220 -15 360 -20 140 -6 316 -15 390 -20 607
-47 3865 -47 4415 0 66 5 239 14 385 20 146 5 312 14 370 20 58 5 161 14 230
20 194 14 443 39 465 45 11 3 58 12 105 19 105 17 238 44 265 55 11 5 54 21
95 37 71 27 191 86 214 105 6 5 30 22 53 37 95 62 209 172 288 277 53 70 155
240 155 260 1 5 9 28 20 50 11 22 19 47 20 55 0 9 4 20 9 25 9 9 25 74 56 225
8 36 16 74 20 85 7 24 31 196 50 360 8 66 17 134 20 150 9 38 32 346 45 585 6
102 15 228 20 280 13 125 13 1565 0 1690 -5 52 -14 178 -20 280 -13 239 -36
547 -45 585 -3 17 -12 84 -20 150 -19 164 -43 336 -50 360 -4 11 -12 49 -20
85 -31 151 -47 216 -56 224 -5 6 -9 17 -9 25 -1 9 -9 34 -20 56 -11 22 -19 45
-20 50 0 20 -102 190 -155 260 -79 105 -193 215 -288 277 -23 15 -47 32 -53
37 -23 19 -143 78 -214 105 -41 16 -84 32 -95 37 -27 11 -160 38 -265 55 -47
7 -94 16 -105 19 -22 6 -271 31 -465 45 -69 6 -172 15 -230 20 -58 6 -220 15
-360 20 -140 6 -316 15 -390 20 -281 22 -966 34 -2186 37 -693 2 -1263 1
-1266 -2z m522 -2254 c384 -219 751 -428 1938 -1103 216 -122 394 -227 394
-233 0 -5 -287 -173 -638 -372 -815 -463 -1010 -574 -1554 -884 -245 -140
-448 -255 -452 -257 -5 -2 -8 679 -8 1513 0 834 3 1515 8 1513 4 -1 144 -81
312 -177z"/>
</g>
</svg>
